<svg width="148" height="28" viewBox="0 0 148 28" fill="none" xmlns="http://www.w3.org/2000/svg">
  <mask id="mask0_935_31891" maskUnits="userSpaceOnUse" x="0" y="0" width="148" height="28">
    <rect width="148" height="28" fill="white"></rect>
  </mask>
  <g mask="url(#mask0_935_31891)">
    <path d="M33.0319 22.0904V13.4664H31.3975V10.9992H33.0319V9.44198C32.9578 8.10829 33.3626 6.79187 34.1738 5.72875C34.9256 4.82235 36.0587 4.31772 37.2375 4.36429C38.3134 4.37641 39.3728 4.63002 40.3369 5.10629L39.6887 7.52614C39.4173 7.38679 39.131 7.27841 38.8353 7.20306C38.5419 7.12063 38.2391 7.07647 37.9343 7.07168C36.813 7.07168 36.2523 7.82229 36.2523 9.32352V11.0003H39.3225V13.4675H36.2523V22.0915L33.0319 22.0904Z" fill="#2A2C3A"></path>
    <path d="M51.2707 12.3159C50.3672 12.3157 49.4741 12.5077 48.651 12.8791C47.9208 13.2 47.332 13.7739 46.9938 14.4945V22.0889H43.7734V9.5374H46.7291V12.22C47.1237 11.4036 47.7036 10.6901 48.423 10.1362C49.0465 9.63495 49.8205 9.35663 50.6214 9.3457C50.7986 9.3457 50.9304 9.3457 51.0179 9.35755C51.1027 9.36517 51.1871 9.37703 51.2707 9.39309V12.3159Z" fill="#2A2C3A"></path>
    <path fill-rule="evenodd" clip-rule="evenodd" d="M60.9749 22.3298C60.0283 22.3441 59.0889 22.1645 58.2148 21.802C57.4308 21.4745 56.7229 20.9895 56.1352 20.3773C55.5672 19.7793 55.1224 19.0761 54.8259 18.3074C54.2192 16.7115 54.2192 14.9495 54.8259 13.3536C55.1221 12.5838 55.5669 11.8795 56.1352 11.2805C56.7235 10.6689 57.4312 10.184 58.2148 9.85572C59.0896 9.49338 60.0298 9.31413 60.9771 9.3291C61.9212 9.31314 62.8585 9.49245 63.7297 9.85572C65.2861 10.5144 66.5054 11.7777 67.1056 13.3536C67.7138 14.9492 67.7138 16.7118 67.1056 18.3074C66.811 19.0747 66.3709 19.7782 65.8092 20.3794C65.2258 20.9931 64.5195 21.4778 63.7361 21.802C62.8617 22.1646 61.9218 22.3442 60.9749 22.3298ZM57.9404 17.3588C57.7663 16.8709 57.6807 16.356 57.6876 15.8382V15.8371C57.6829 15.3237 57.7684 14.8134 57.9404 14.3294C58.0945 13.8896 58.331 13.4828 58.6372 13.1308C58.9283 12.7997 59.2837 12.5308 59.6819 12.3404C60.0865 12.1478 60.5298 12.0495 60.9782 12.0528C61.4253 12.0498 61.8677 12.1438 62.2746 12.3285C62.6737 12.5121 63.0296 12.7774 63.3192 13.1071C63.6257 13.4585 63.8622 13.8649 64.016 14.3047C64.1878 14.7887 64.2734 15.2989 64.2688 15.8124C64.275 16.334 64.1895 16.8526 64.016 17.3448C63.862 17.7848 63.6256 18.1915 63.3192 18.5434C63.0294 18.8726 62.6735 19.1375 62.2746 19.321C61.4494 19.6875 60.507 19.6875 59.6819 19.321C59.2829 19.1375 58.927 18.8726 58.6372 18.5434C58.3332 18.1951 58.0969 17.7934 57.9404 17.3588Z" fill="#2A2C3A"></path>
    <path d="M83.7846 22.0915H80.5642V15.0485C80.6254 14.2767 80.4401 13.5055 80.0349 12.8451C79.6919 12.3862 79.1435 12.1262 78.57 12.1505C78.2326 12.1535 77.8986 12.2184 77.5848 12.3422C77.2426 12.4723 76.9224 12.6539 76.6352 12.8806C76.3315 13.1193 76.0609 13.3971 75.8304 13.7066C75.5913 14.0231 75.4119 14.3804 75.3011 14.7609V22.0915H72.0818V9.53893H74.9899V11.8629C75.4629 11.0552 76.165 10.4051 77.0079 9.99447C77.9332 9.53713 78.9548 9.30709 79.9874 9.32355C80.6552 9.29602 81.3185 9.44461 81.9103 9.75432C82.3862 10.0221 82.7836 10.4093 83.063 10.8775C83.3449 11.3664 83.5363 11.902 83.6279 12.4585C83.7322 13.0516 83.7846 13.6526 83.7846 14.2548V22.0915Z" fill="#2A2C3A"></path>
    <path d="M96.4716 21.4432C95.951 21.6663 95.4175 21.858 94.8738 22.0172C94.2311 22.2111 93.563 22.3084 92.8915 22.3058C92.4651 22.3082 92.0405 22.2517 91.6297 22.1378C91.251 22.0333 90.899 21.8498 90.5969 21.5993C90.2893 21.3387 90.0464 21.0107 89.8872 20.6408C89.6987 20.1896 89.6085 19.7036 89.6225 19.215V11.9996H87.988V9.53777H89.6225V5.46484H92.8429V9.53777H95.5101V12.005H92.8429V18.137C92.8048 18.4918 92.9389 18.8435 93.2037 19.0836C93.4525 19.2696 93.757 19.3663 94.0679 19.3582C94.4038 19.3588 94.7373 19.3023 95.0542 19.1913C95.3729 19.0836 95.6311 18.9835 95.8223 18.9038L96.4716 21.4432Z" fill="#2A2C3A"></path>
    <path fill-rule="evenodd" clip-rule="evenodd" d="M103.607 21.8153C104.476 22.1683 105.408 22.3434 106.347 22.3301V22.3312C107.623 22.3654 108.882 22.0462 109.987 21.4093C110.945 20.8581 111.718 20.0368 112.209 19.0487L109.447 18.283C109.216 18.8179 108.803 19.2545 108.281 19.5161C107.726 19.8239 107.101 19.9849 106.466 19.9835C106.056 19.985 105.649 19.912 105.265 19.7681C104.488 19.4796 103.852 18.9054 103.487 18.1635C103.286 17.7504 103.164 17.3039 103.126 16.8464H112.857C112.893 16.689 112.913 16.5285 112.918 16.3672C112.929 16.1755 112.929 15.9763 112.929 15.7684C112.932 14.934 112.781 14.1062 112.484 13.326C112.198 12.558 111.757 11.8565 111.188 11.2647C110.601 10.6611 109.898 10.1807 109.121 9.8518C108.251 9.48862 107.314 9.30931 106.37 9.32519C105.419 9.31088 104.474 9.49007 103.595 9.8518C102.804 10.1801 102.089 10.6648 101.491 11.2766C100.915 11.8759 100.466 12.585 100.171 13.3615C99.8636 14.1683 99.7087 15.0249 99.7143 15.888C99.7105 16.7327 99.8696 17.5703 100.183 18.3552C100.486 19.1235 100.939 19.8239 101.516 20.4153C102.111 21.0175 102.822 21.4936 103.607 21.8153ZM108.568 12.5C109.197 13.0906 109.572 13.9012 109.614 14.7615L103.078 14.7636C103.104 14.3236 103.214 13.8926 103.402 13.494C103.576 13.126 103.816 12.7931 104.111 12.5118C104.4 12.2394 104.739 12.0239 105.108 11.8764C105.494 11.7236 105.907 11.6464 106.322 11.6492C107.154 11.6304 107.959 11.9356 108.568 12.5Z" fill="#2A2C3A"></path>
    <path fill-rule="evenodd" clip-rule="evenodd" d="M119.936 21.6578C120.653 21.9981 121.437 22.1701 122.231 22.1608C123.076 22.1651 123.91 21.9636 124.659 21.5738C125.393 21.1995 126.003 20.6212 126.414 19.9089V21.4845C126.426 22.0272 126.323 22.5663 126.111 23.0665C125.928 23.4914 125.648 23.8682 125.293 24.1671C124.942 24.4597 124.532 24.676 124.092 24.8025C123.629 24.9394 123.147 25.008 122.664 25.006C121.855 25.0113 121.055 24.8396 120.32 24.5031C119.616 24.186 118.995 23.7104 118.507 23.1138L116.753 24.8143C117.404 25.628 118.229 26.2869 119.168 26.7431C120.267 27.2308 121.462 27.4638 122.664 27.4248C123.608 27.4341 124.548 27.2972 125.45 27.0188C126.255 26.7705 127.006 26.3721 127.663 25.8449C128.282 25.3407 128.78 24.704 129.12 23.9818C129.474 23.1995 129.65 22.3489 129.635 21.4909V9.53708H126.826V11.7372C126.372 11.0161 125.751 10.4136 125.016 9.97969C124.228 9.5279 123.331 9.30029 122.423 9.32169C120.809 9.29696 119.267 9.99055 118.218 11.2138C117.695 11.8222 117.288 12.5198 117.015 13.2729C116.722 14.0874 116.576 14.9471 116.583 15.8123C116.578 16.6443 116.717 17.4709 116.994 18.2558C117.249 18.9959 117.64 19.6824 118.146 20.2805C118.638 20.861 119.248 21.3306 119.936 21.6578ZM124.348 19.4295C124.023 19.542 123.682 19.5988 123.339 19.5975V19.5964C122.862 19.6009 122.391 19.5028 121.956 19.3089C121.538 19.122 121.162 18.8531 120.851 18.5184C120.534 18.1767 120.286 17.7784 120.118 17.3446C119.938 16.8866 119.848 16.3986 119.852 15.9069C119.851 15.4188 119.929 14.9337 120.083 14.4703C120.226 14.0224 120.45 13.6042 120.744 13.2361C121.028 12.8805 121.384 12.5872 121.787 12.3746C122.207 12.1566 122.673 12.0456 123.146 12.0515C123.843 12.06 124.518 12.2956 125.068 12.7224C125.678 13.1724 126.146 13.7877 126.415 14.495V17.4889C126.297 17.7838 126.135 18.0588 125.932 18.3041C125.726 18.5575 125.488 18.783 125.224 18.975C124.955 19.1683 124.66 19.3214 124.348 19.4295Z" fill="#2A2C3A"></path>
    <path fill-rule="evenodd" clip-rule="evenodd" d="M137.549 21.6579C138.265 21.9979 139.049 22.17 139.842 22.1608C140.686 22.1649 141.519 21.9634 142.267 21.5739C143.001 21.1995 143.611 20.6212 144.022 19.9089V21.4899C144.034 22.0325 143.931 22.5716 143.72 23.0719C143.537 23.4968 143.257 23.8736 142.902 24.1725C142.551 24.4651 142.142 24.6815 141.701 24.8079C141.237 24.9447 140.756 25.0133 140.272 25.0114C139.463 25.0166 138.664 24.8449 137.929 24.5085C137.225 24.1914 136.604 23.7159 136.115 23.1192L134.364 24.8143C135.016 25.6278 135.841 26.2866 136.779 26.7431C137.878 27.2307 139.073 27.4637 140.275 27.4248C141.22 27.4342 142.16 27.2973 143.062 27.0188C143.867 26.7707 144.618 26.3724 145.274 25.8449C145.892 25.3405 146.388 24.7037 146.726 23.9819C147.08 23.1996 147.256 22.349 147.242 21.4909V9.53709H144.433V11.7372C143.98 11.0166 143.361 10.4141 142.627 9.97971C141.84 9.52781 140.943 9.3002 140.034 9.32171C138.42 9.29714 136.879 9.99074 135.83 11.2139C135.307 11.822 134.9 12.5196 134.627 13.2729C134.334 14.0874 134.188 14.9471 134.195 15.8123C134.19 16.6442 134.329 17.4708 134.605 18.2559C134.861 18.9955 135.252 19.6819 135.757 20.2805C136.25 20.8611 136.86 21.3306 137.549 21.6579ZM141.955 19.4297C141.63 19.5423 141.289 19.5991 140.945 19.5977V19.5966C140.469 19.6011 139.998 19.503 139.563 19.3091C139.145 19.1222 138.769 18.8534 138.457 18.5186C138.141 18.1769 137.893 17.7786 137.726 17.3448C137.546 16.8868 137.456 16.3988 137.46 15.9071C137.459 15.4191 137.536 14.9341 137.689 14.4705C137.833 14.0228 138.057 13.6047 138.35 13.2363C138.635 12.8807 138.991 12.5874 139.395 12.3748C139.814 12.1569 140.28 12.0459 140.753 12.0517C141.45 12.0601 142.125 12.2958 142.676 12.7226C143.286 13.1724 143.753 13.7878 144.022 14.4952V17.4891C143.905 17.7842 143.742 18.0593 143.54 18.3043C143.334 18.5574 143.095 18.7829 142.831 18.9752C142.563 19.1683 142.268 19.3214 141.955 19.4297Z" fill="#2A2C3A"></path>
    <path fill-rule="evenodd" clip-rule="evenodd" d="M6.79825 1.5793C9.5638 -0.389318 12.3293 0.214835 14.8875 2.98684V2.99114C17.4456 5.76637 20.2803 11.1822 19.308 16.9244C19.1099 18.1642 18.689 19.3582 18.0657 20.4491C16.8429 22.5074 14.8309 23.9794 12.4946 24.5253C9.90343 25.1877 7.15437 24.7964 4.85265 23.4376C4.56078 23.2528 4.2808 23.0499 4.01434 22.8302C1.97634 21.0315 0.74801 18.4925 0.604941 15.7828C0.492031 14.2754 0.603426 12.7595 0.93551 11.2845C1.23712 9.92946 1.6912 8.61267 2.28912 7.35914C3.27977 5.08464 4.83081 3.0965 6.79825 1.5793ZM4.63227 9.37945C4.94879 8.25407 6.06581 4.97591 8.70281 3.32714C8.83442 3.24635 8.91279 3.10169 8.9084 2.94767C8.90402 2.79365 8.81754 2.65366 8.68154 2.58044C8.54555 2.50722 8.38069 2.51188 8.24909 2.59268C6.69709 3.62963 5.46768 5.07943 4.70033 6.7776C4.32981 7.53926 4.02759 8.33209 3.7972 9.14683C3.76477 9.26201 3.78184 9.38545 3.84434 9.48758C3.90683 9.58971 4.00912 9.66133 4.12669 9.6853C4.34977 9.73228 4.57107 9.5984 4.63227 9.37945Z" fill="#2A2C3A"></path>
    <path d="M12.1208 26.5782C15.3928 28.073 19.2332 27.5782 22.0163 25.3031C26.7005 21.4025 27.9979 13.4344 27.9979 13.4344C27.9979 13.4344 28.8254 9.30652 27.3022 6.92437C25.779 4.54221 22.0163 4.56267 18.5734 5.73975C20.112 8.86867 20.9593 12.2902 21.0581 15.7734C21.0145 21.0264 17.2877 25.5318 12.123 26.575" fill="#FFBD07"></path>
  </g>
</svg>