<svg width="143" height="66" viewBox="0 0 143 66" xmlns="http://www.w3.org/2000/svg"><g fill-rule="nonzero" fill="none">
  <path d="M0 50.89a13.56 13.56 0 0 1 1-4.45L13.73 9.72c.89-2.67.81-3.49-.52-4.23L11.13 4.3a1.51 1.51 0 0 1 .37-1.78A61.71 61.71 0 0 1 25.15 0c.52.07.74.3.74.74-1.11 3.12-2.15 5.79-3.48 9.72L10.24 45.7c-.74 2.08-1 3.41.07 3.41 1.63 0 5.94-4.52 7.72-6.6a1.37 1.37 0 0 1 1.41 1.63c-2.15 4.16-6.23 10-14.69 10C1 54.09 0 52.38 0 50.89M39.5 27.23l-6.9 19.21c-.37 1-.37 1.71.44 1.71 1.34 0 4.9-2.67 7.87-5.71a1.42 1.42 0 0 1 1.48 1.7c-2.52 3.79-10.09 10-16.17 10a3.37 3.37 0 0 1-3.42-3.2 11.66 11.66 0 0 1 .82-4l6.75-19.66h-5.49c-.74-.6-.22-2.38.6-2.82l6.45-1.34L37.27 16a4.75 4.75 0 0 1 2.52-.59 3.26 3.26 0 0 1 2.75 1.26l-2 6.75h6.82c1.19 1 .37 3.34-.37 3.86l-7.49-.05z" fill="#E72E74"></path>
  <path d="M75.79 49.71c0 5.78-.28 7.28-1.89 9.51-2.73 3.89-8 6.22-13.9 6.22-7.56 0-13.07-3.89-13.85-9.78h9.57c.83 1.78 2.5 2.72 4.94 2.72 4.23 0 6.73-2.78 6.73-7.5V50c-1.17 2.28-4.78 4-8.34 4-7.5 0-13.45-6.5-13.45-14.68 0-8.61 6-15 14.12-15 3.61 0 6.34 1.17 8.17 3.5v-2.57h7.9v24.46zM53.94 39c0 4.16 2.83 7.17 6.84 7.17s6.67-3 6.67-7.12A6.76 6.76 0 1 0 53.94 39zM85.25 28.81c0 1 0 1.1.51 1.17h.32a.23.23 0 0 1 0 .33h-2.59c-.09 0-.12-.27 0-.33h.3c.5-.07.51-.2.51-1.17v-6.07c0-.79 0-.87-.41-1.11l-.14-.08a.22.22 0 0 1 0-.27 10 10 0 0 0 1.45-.56.16.16 0 0 1 .14.08v1.66l-.09 6.35zM88.13 26.88c-.35 0-.36 0-.36.36A2.27 2.27 0 0 0 90 29.75a1.46 1.46 0 0 0 1.23-.66.18.18 0 0 1 .24.16 2.35 2.35 0 0 1-2.1 1.25 2.41 2.41 0 0 1-2-.89 2.84 2.84 0 0 1-.56-1.74 2.81 2.81 0 0 1 2.69-3 1.76 1.76 0 0 1 1.91 1.59 1 1 0 0 1 0 .35c0 .08-.23.1-.8.1l-2.48-.03zm.83-.41c1 0 1.29 0 1.4-.13.11-.13.08-.08.08-.25 0-.38-.26-.85-1-.85a1.56 1.56 0 0 0-1.49 1.17s0 .06.09.06h.92zM94.88 27.53c.2-.06.23-.18.23-.38v-.62c0-.5-.15-1.17-1-1.17-.37 0-.83.19-.86.6 0 .22 0 .38-.13.46a1.45 1.45 0 0 1-.77.26.17.17 0 0 1-.18-.19c0-.7 1.51-1.65 2.49-1.65.98 0 1.44.56 1.4 1.57L96 28.74c0 .62.09 1.17.61 1.17a.77.77 0 0 0 .34-.08c.07 0 .13-.1.17-.1.04 0 .1.09.1.18a1.4 1.4 0 0 1-1.13.59 1.06 1.06 0 0 1-.87-.42c0-.08-.14-.18-.22-.18a2.32 2.32 0 0 0-.52.26 1.88 1.88 0 0 1-1 .34 1.38 1.38 0 0 1-.94-.31 1.24 1.24 0 0 1-.42-.94c0-.52.25-.83 1.11-1.14l1.65-.58zm-.83 2.37c.3-.032.585-.15.82-.34.16-.16.16-.35.17-.63v-.79c0-.15-.06-.18-.14-.18a2.84 2.84 0 0 0-.55.14c-.79.27-1.18.47-1.18 1a.81.81 0 0 0 .88.8zM98.44 26.46c0-.52 0-.59-.37-.83l-.07-.08a.18.18 0 0 1 0-.24c.464-.19.915-.41 1.35-.66.07 0 .11 0 .11.09v.9a2.7 2.7 0 0 1 1.47-.8.56.56 0 0 1 .61.53.59.59 0 0 1-.54.63.53.53 0 0 1-.29-.09 1.08 1.08 0 0 0-.59-.22.6.6 0 0 0-.49.27 2.1 2.1 0 0 0-.17 1v1.83c0 1 0 1.13.54 1.17h.48a.23.23 0 0 1 0 .33H97.76a.23.23 0 0 1 0-.33h.26c.49-.08.51-.2.51-1.17l-.09-2.33zM102.89 26.46c0-.52 0-.59-.36-.83l-.12-.08a.17.17 0 0 1 0-.24 7.58 7.58 0 0 0 1.34-.66.16.16 0 0 1 .15.09 6 6 0 0 0 0 .63c0 .083.067.15.15.15a3.64 3.64 0 0 1 1.88-.68 1.49 1.49 0 0 1 1.57 1.66v2.31c0 1 0 1.1.51 1.17h.29c.1.06.07.29 0 .33h-2.51a.23.23 0 0 1 0-.33h.26c.49-.08.51-.2.51-1.17v-2a1.17 1.17 0 0 0-1.27-1.33 1.48 1.48 0 0 0-1.14.47 1.17 1.17 0 0 0-.2.81v2c0 1 0 1.09.51 1.17h.24c.1.06.07.29 0 .33h-2.48a.22.22 0 0 1 0-.33h.28c.5-.07.51-.2.51-1.17l-.12-2.3zM109.93 26.46c0-.52 0-.59-.36-.83l-.12-.08a.19.19 0 0 1 0-.24 9.72 9.72 0 0 0 1.39-.66.13.13 0 0 1 .13.08v4.08c0 1 0 1.1.51 1.17h.28a.23.23 0 0 1 0 .33h-2.52a.24.24 0 0 1 0-.33h.28c.5-.07.51-.2.51-1.17l-.1-2.35zm1.12-3.82a.7.7 0 0 1-1.4 0 .7.7 0 0 1 .73-.72.67.67 0 0 1 .67.72zM113.38 26.46c0-.52 0-.59-.36-.83l-.12-.08a.19.19 0 0 1 0-.24 7.25 7.25 0 0 0 1.34-.66.16.16 0 0 1 .15.09 6 6 0 0 0 0 .63c0 .083.067.15.15.15a3.7 3.7 0 0 1 1.88-.68A1.49 1.49 0 0 1 118 26.5v2.31c0 1 0 1.1.51 1.17h.3a.24.24 0 0 1 0 .33h-2.51a.24.24 0 0 1 0-.33h.26c.49-.08.51-.2.51-1.17v-2a1.16 1.16 0 0 0-1.26-1.33 1.47 1.47 0 0 0-1.14.47 1.12 1.12 0 0 0-.21.81v2c0 1 0 1.09.51 1.17h.25a.24.24 0 0 1 0 .33h-2.48a.23.23 0 0 1 0-.33h.28c.5-.07.51-.2.51-1.17l-.15-2.3zM125.1 25.32c.14.07.12.52-.09.55h-1a5.23 5.23 0 0 1 0 .68 2.07 2.07 0 0 1-2.26 2.14h-.59c-.16 0-.59.35-.59.74s.31.56.94.56h1.6c.75 0 1.87.13 1.87 1.48S123.39 34 121.64 34c-1.75 0-2.22-.88-2.22-1.56a.77.77 0 0 1 .14-.49c.23-.24.61-.59.92-.9.12-.12.22-.24.1-.32a1.26 1.26 0 0 1-1-1.06c0-.07.06-.12.21-.23a4.84 4.84 0 0 0 .71-.62.6.6 0 0 0 .13-.25 1.82 1.82 0 0 1-1-1.63 2.1 2.1 0 0 1 2.19-2 3.26 3.26 0 0 1 1.29.27c.25.14.533.212.82.21l1.17-.1zm-2.81 5.42a2.93 2.93 0 0 0-1.15.15 1.36 1.36 0 0 0-.65 1.13c0 .72.58 1.32 1.8 1.32 1.22 0 2-.67 2-1.43 0-.76-.57-1.17-1.53-1.17h-.47zm.83-3.84c0-.91-.37-1.67-1.19-1.67-.65 0-1.13.59-1.13 1.5s.58 1.57 1.22 1.57 1.1-.58 1.1-1.4zM85.49 37.89c-.23 0-.24 0-.24.33v2.5c0 .78.09 1.49 1 1.49a1 1 0 0 0 .36-.06c.12 0 .29-.19.33-.19.04 0 .17.15.14.23a1.87 1.87 0 0 1-1.41.61c-1.15 0-1.4-.64-1.4-1.44v-3.08c0-.36 0-.39-.28-.39h-.39a.21.21 0 0 1 0-.28 2.56 2.56 0 0 0 .85-.41 3.35 3.35 0 0 0 .57-.8c.07 0 .23 0 .28.07v.61c0 .24 0 .25.24.25H87a.41.41 0 0 1 0 .56h-1.51zM88.6 39.18c-.35 0-.36 0-.36.36a2.27 2.27 0 0 0 2.23 2.51 1.45 1.45 0 0 0 1.23-.65.18.18 0 0 1 .24.16 2.34 2.34 0 0 1-2.1 1.24 2.4 2.4 0 0 1-2-.88 2.85 2.85 0 0 1-.56-1.75 2.81 2.81 0 0 1 2.69-3 1.76 1.76 0 0 1 1.91 1.6.77.77 0 0 1-.06.35c0 .08-.22.09-.79.09l-2.43-.03zm.83-.4c1 0 1.29-.05 1.4-.13.11-.08.08-.09.08-.26 0-.38-.26-.84-1-.84a1.56 1.56 0 0 0-1.49 1.16s0 .07.09.07h.92zM96.76 37.37a.75.75 0 0 1 .2.54c0 .24-.13.49-.3.49a.21.21 0 0 1-.18-.09 1.84 1.84 0 0 0-1.34-.71 1.94 1.94 0 0 0-1.86 2.16 2.2 2.2 0 0 0 2.16 2.29 1.65 1.65 0 0 0 1.49-.8.21.21 0 0 1 .24.19 2.43 2.43 0 0 1-2.24 1.36 2.56 2.56 0 0 1-1.83-.68 2.67 2.67 0 0 1-.78-2 3 3 0 0 1 3.24-3c.412.01.819.094 1.2.25zM98.05 35.05c0-.79 0-.87-.42-1.11l-.13-.08a.2.2 0 0 1 0-.27A9.9 9.9 0 0 0 99 33a.16.16 0 0 1 .13.08v4.74a3 3 0 0 1 1.81-.7 1.57 1.57 0 0 1 1.74 1.73v2.24c0 1 0 1.12.51 1.17h.36a.25.25 0 0 1 0 .34h-2.59a.25.25 0 0 1 0-.34h.27c.5-.08.51-.2.51-1.17V39.2c0-.86-.41-1.44-1.27-1.44a1.61 1.61 0 0 0-1.05.36c-.24.2-.28.27-.28.74v2.25c0 1 0 1.1.51 1.17h.28a.23.23 0 0 1 0 .34H97.36c-.1 0-.12-.27 0-.34h.34c.49-.05.51-.2.51-1.17l-.16-6.06zM104.76 38.77c0-.53 0-.59-.37-.84l-.12-.08a.18.18 0 0 1 0-.24 7.24 7.24 0 0 0 1.34-.66.15.15 0 0 1 .14.1v.63a.14.14 0 0 0 .15.15 3.65 3.65 0 0 1 1.87-.69 1.49 1.49 0 0 1 1.57 1.67v2.3c0 1 0 1.1.51 1.17h.3c.09.07.07.3 0 .34h-2.51a.24.24 0 0 1 0-.34h.25c.5-.08.51-.2.51-1.17v-2a1.16 1.16 0 0 0-1.26-1.32 1.45 1.45 0 0 0-1.14.47 1.08 1.08 0 0 0-.2.8v2c0 1 0 1.09.51 1.17h.24c.09.07.07.3 0 .34h-2.48a.25.25 0 0 1 0-.34h.29c.49-.07.51-.2.51-1.17l-.11-2.29zM116 39.92a2.74 2.74 0 0 1-2.83 2.88 2.64 2.64 0 0 1-2.75-2.8 2.82 2.82 0 0 1 2.85-2.9 2.68 2.68 0 0 1 2.73 2.82zm-2.89-2.37c-.88 0-1.54.84-1.54 2.32 0 1.22.55 2.53 1.73 2.53s1.54-1.23 1.54-2.27-.45-2.58-1.73-2.58zM118.11 41.11c0 1 0 1.1.5 1.17h.33a.25.25 0 0 1 0 .34h-2.59a.25.25 0 0 1 0-.34h.31c.5-.07.51-.2.51-1.17v-6.06c0-.79 0-.87-.41-1.11l-.14-.08a.22.22 0 0 1 0-.27A9.1 9.1 0 0 0 118 33a.17.17 0 0 1 .14.08v1.67l-.03 6.36zM125 39.92a2.73 2.73 0 0 1-2.83 2.88 2.65 2.65 0 0 1-2.79-2.8 2.82 2.82 0 0 1 2.86-2.9 2.68 2.68 0 0 1 2.76 2.82zm-2.88-2.37c-.89 0-1.55.84-1.55 2.32 0 1.22.55 2.53 1.73 2.53s1.55-1.23 1.55-2.27-.5-2.58-1.77-2.58h.04zM131.08 37.63c.15.06.12.52-.08.55h-1a5.08 5.08 0 0 1 0 .68 2.06 2.06 0 0 1-2.19 2.14 4.42 4.42 0 0 1-.59 0c-.17.1-.6.35-.6.74s.31.56.94.56h1.6c.75 0 1.88.14 1.88 1.48 0 1.34-1.6 2.54-3.34 2.54-1.74 0-2.23-.89-2.23-1.56a.75.75 0 0 1 .15-.5c.23-.24.6-.59.91-.9.12-.12.23-.24.11-.32a1.23 1.23 0 0 1-1-1.06c0-.06 0-.12.2-.23a3.85 3.85 0 0 0 .71-.61.52.52 0 0 0 .14-.26 1.81 1.81 0 0 1-1-1.62 2.1 2.1 0 0 1 2.19-2c.44.005.875.097 1.28.27.249.145.532.22.82.22l1.1-.12zm-2.8 5.42a3 3 0 0 0-1.16.14 1.38 1.38 0 0 0-.64 1.13c0 .73.57 1.33 1.8 1.33s2-.67 2-1.44c0-.77-.56-1.16-1.53-1.16h-.47zm.83-3.84c0-.91-.38-1.68-1.2-1.68-.64 0-1.12.59-1.12 1.5s.57 1.57 1.22 1.57 1.1-.6 1.1-1.39zM132.06 38.77c0-.53 0-.59-.36-.84l-.12-.08a.17.17 0 0 1 0-.24A8.66 8.66 0 0 0 133 37a.13.13 0 0 1 .14.09c0 .46-.06 1.11-.06 1.66v2.41c0 1 0 1.1.51 1.17h.28a.24.24 0 0 1 0 .34H131.34a.24.24 0 0 1 0-.34h.28c.5-.07.51-.2.51-1.17l-.07-2.39zm1.11-3.83a.7.7 0 0 1-1.39 0 .7.7 0 0 1 .72-.73.68.68 0 0 1 .67.73zM135.6 39.18c-.35 0-.36 0-.36.36a2.27 2.27 0 0 0 2.23 2.51 1.45 1.45 0 0 0 1.23-.65.18.18 0 0 1 .24.16 2.34 2.34 0 0 1-2.1 1.24 2.4 2.4 0 0 1-2-.88 2.85 2.85 0 0 1-.56-1.75 2.81 2.81 0 0 1 2.69-3 1.76 1.76 0 0 1 1.91 1.6.77.77 0 0 1-.06.35c0 .08-.22.09-.79.09l-2.43-.03zm.83-.4c1 0 1.29-.05 1.4-.13.11-.08.08-.09.08-.26 0-.38-.26-.84-1-.84a1.56 1.56 0 0 0-1.49 1.16s0 .07.09.07h.92zM142.51 37.38c.136.348.21.717.22 1.09a.25.25 0 0 1-.33 0 1.3 1.3 0 0 0-1.18-1 .8.8 0 0 0-.86.82c0 .55.57.85 1 1.11.71.41 1.37.86 1.37 1.82 0 .96-.94 1.52-1.94 1.52a2.2 2.2 0 0 1-1.43-.4 3.81 3.81 0 0 1-.16-1.35.23.23 0 0 1 .31 0c.22.74.65 1.39 1.42 1.39a.83.83 0 0 0 .9-.86c0-.62-.54-1-1-1.24-.77-.44-1.33-.91-1.33-1.65 0-1 .81-1.53 1.83-1.53.41-.006.816.09 1.18.28zM89.06 48.69c.14.07.12.53-.08.55H88c.015.23.015.46 0 .69a2.06 2.06 0 0 1-2.26 2.13h-.59c-.16 0-.59.35-.59.74s.31.56.94.56h1.6c.75 0 1.88.14 1.88 1.48 0 1.34-1.6 2.53-3.34 2.53-1.74 0-2.23-.88-2.23-1.55a.73.73 0 0 1 .15-.5c.22-.24.6-.59.91-.9.12-.12.23-.24.11-.32a1.23 1.23 0 0 1-1-1.06c0-.07 0-.12.2-.23a4.28 4.28 0 0 0 .71-.61.53.53 0 0 0 .13-.26 1.82 1.82 0 0 1-1-1.62 2.09 2.09 0 0 1 2.18-2 3.26 3.26 0 0 1 1.29.27c.25.143.533.215.82.21l1.15-.11zm-2.81 5.42a3 3 0 0 0-1.15.15 1.38 1.38 0 0 0-.64 1.13c0 .72.57 1.33 1.79 1.33 1.22 0 2-.67 2-1.44 0-.77-.56-1.17-1.53-1.17h-.47zm.84-3.83c0-.92-.38-1.68-1.2-1.68-.64 0-1.13.59-1.13 1.5s.58 1.57 1.22 1.57 1.11-.57 1.11-1.39zM90.37 49.83c0-.52 0-.59-.36-.83l-.12-.08a.19.19 0 0 1 0-.24c.472-.195.93-.422 1.37-.68.06 0 .11 0 .11.1v.9a2.66 2.66 0 0 1 1.47-.81.56.56 0 0 1 .61.54.6.6 0 0 1-.58.61.56.56 0 0 1-.3-.09 1.12 1.12 0 0 0-.59-.21.61.61 0 0 0-.48.26 2.12 2.12 0 0 0-.17 1v1.82c0 1 0 1.13.53 1.17h.48a.24.24 0 0 1 0 .34h-2.73a.24.24 0 0 1 0-.34h.25c.5-.08.51-.2.51-1.17v-2.29zM99.56 51a2.73 2.73 0 0 1-2.83 2.88A2.65 2.65 0 0 1 94 51.11a2.83 2.83 0 0 1 2.86-2.9 2.68 2.68 0 0 1 2.7 2.79zm-2.88-2.38c-.89 0-1.54.85-1.54 2.32 0 1.23.55 2.54 1.73 2.54s1.54-1.23 1.54-2.27-.41-2.6-1.73-2.6v.01zM102.17 51.71c0 .93.22 1.55 1.24 1.55a1.74 1.74 0 0 0 1.09-.41 1 1 0 0 0 .27-.78v-2.2c0-.87-.1-.89-.5-1.06l-.17-.06a.18.18 0 0 1 0-.3 5.34 5.34 0 0 0 1.57-.24c.067 0 .107.03.12.09V51.73c0 1.06 0 1.46.42 1.46.175-.006.35-.03.52-.07.08.07.09.34 0 .39a6.86 6.86 0 0 0-1.76.5.18.18 0 0 1-.16-.1v-.55c0-.12-.04-.18-.12-.18-.539.4-1.18.64-1.85.69-1.18 0-1.63-.59-1.63-1.67V50c0-.84 0-1-.4-1.14l-.16-.06c-.08-.07-.07-.26 0-.3a4.54 4.54 0 0 0 1.43-.24.15.15 0 0 1 .14.09 9.46 9.46 0 0 0 0 1.17l-.05 2.19zM108 49.83c0-.52 0-.59-.36-.83l-.12-.08a.19.19 0 0 1 0-.24 8.68 8.68 0 0 0 1.38-.68c.08 0 .14 0 .16.09v.62c0 .18 0 .17.12.17a4.25 4.25 0 0 1 1.88-.63 2.27 2.27 0 0 1 2.22 2.46 3.12 3.12 0 0 1-3.27 3.2 4.76 4.76 0 0 1-.74 0c-.12 0-.18.09-.18.37v1.32c0 1 0 1.08.5 1.14l.53.07c.09.07.07.3 0 .34h-2.76c-.1 0-.12-.27 0-.34h.28c.5-.07.51-.2.51-1.17l-.15-5.81zm1 2.5a.85.85 0 0 0 .4.8 1.69 1.69 0 0 0 1 .3c1.1 0 1.75-1 1.75-2.42a2 2 0 0 0-1.81-2.16 1.63 1.63 0 0 0-1.14.38 1.2 1.2 0 0 0-.2.77v2.33z" fill="lightgrey"></path></g></svg>