<svg version="1.0" xmlns="http://www.w3.org/2000/svg"
 width="1446.000000pt" height="362.000000pt" viewBox="0 0 1446.000000 362.000000"
 preserveAspectRatio="xMidYMid meet">

<g transform="translate(0.000000,362.000000) scale(0.100000,-0.100000)"
fill="rgb(37, 66, 89)" stroke="none">
<path d="M13 3605 c-10 -11 -13 -387 -13 -1810 l0 -1795 7230 0 7230 0 0 1810
0 1810 -7217 0 c-6222 -1 -7220 -3 -7230 -15z m2462 -970 c153 -32 314 -142
402 -273 180 -271 132 -633 -113 -849 -36 -32 -87 -92 -114 -133 -84 -130 -72
-124 -283 -128 -242 -5 -243 -4 -315 106 -32 49 -95 125 -148 176 -75 75 -99
106 -133 176 -54 111 -74 208 -68 325 19 344 296 611 637 614 36 0 97 -6 135
-14z m1828 -495 c30 -11 64 -31 76 -44 21 -23 22 -24 5 -59 -10 -20 -23 -39
-31 -41 -8 -3 -36 6 -63 20 -27 14 -66 28 -87 30 -102 13 -175 -101 -98 -152
13 -9 66 -31 116 -50 51 -19 107 -46 126 -60 59 -45 81 -116 62 -202 -15 -72
-56 -124 -123 -157 -51 -25 -64 -27 -144 -23 -72 3 -96 9 -139 32 -29 16 -61
38 -71 50 -20 21 -20 21 4 59 24 37 64 51 79 27 13 -21 106 -60 142 -60 78 0
133 48 133 117 0 44 -41 75 -142 109 -106 35 -152 66 -178 118 -54 112 4 250
122 293 53 19 151 15 211 -7z m719 -7 c8 -10 65 -108 126 -218 61 -110 117
-208 124 -218 12 -16 26 4 127 190 154 281 140 263 212 263 l59 0 0 -375 0
-376 -57 3 -58 3 -5 254 -5 254 -94 -174 c-122 -225 -125 -229 -164 -229 -18
0 -37 4 -43 8 -7 4 -61 95 -120 202 l-109 194 -3 -257 -2 -257 -60 0 -60 0 0
375 0 375 58 0 c44 0 63 -5 74 -17z m1659 -355 c81 -202 144 -369 141 -372
-11 -12 -98 -5 -118 8 -11 8 -36 53 -54 101 l-33 86 -149 -3 -150 -3 -30 -80
c-38 -100 -54 -115 -125 -115 -48 0 -54 2 -49 18 4 9 71 178 149 375 l142 357
64 -2 65 -3 147 -367z m934 361 c97 -26 155 -100 155 -197 0 -89 -38 -155
-112 -193 -21 -11 -38 -21 -38 -24 0 -2 52 -75 116 -162 l116 -158 -62 -3
c-43 -2 -69 2 -85 12 -13 9 -68 76 -122 151 l-98 135 -42 0 -43 0 0 -150 0
-151 -62 3 -63 3 -3 373 -2 372 152 0 c84 0 171 -5 193 -11z m1175 -44 l0 -55
-115 0 -115 0 -2 -317 -3 -318 -62 -3 -63 -3 0 321 0 320 -120 0 -120 0 0 55
0 55 300 0 300 0 0 -55z m1513 -313 c81 -202 147 -370 147 -375 0 -9 -89 -8
-115 2 -13 5 -32 38 -56 97 l-35 89 -150 3 -150 2 -34 -91 c-37 -100 -47 -109
-126 -109 -29 0 -44 4 -44 13 0 7 61 165 136 352 75 187 140 350 145 363 8 20
15 22 72 22 l63 0 147 -368z m960 348 c52 -20 94 -54 115 -95 18 -36 24 -110
12 -154 -13 -48 -68 -114 -116 -139 l-33 -17 115 -155 c63 -85 114 -158 114
-162 0 -13 -125 -9 -143 5 -9 6 -61 73 -115 147 -97 133 -99 135 -140 138
l-41 3 -3 -148 -3 -148 -62 -3 -63 -3 0 376 0 375 155 0 c130 0 163 -3 208
-20z m1127 -35 l0 -55 -170 0 -170 0 0 -100 0 -99 138 -3 137 -3 3 -52 3 -53
-140 0 -141 0 0 -105 0 -105 170 0 170 0 0 -60 0 -60 -235 0 -235 0 0 375 0
375 235 0 235 0 0 -55z m833 43 c69 -166 287 -716 287 -726 0 -22 -116 -12
-133 11 -6 10 -25 53 -42 97 l-29 80 -150 -2 -150 -3 -35 -89 c-24 -59 -43
-92 -56 -97 -26 -10 -115 -11 -115 -1 0 4 66 172 147 375 l147 367 62 0 c40 0
64 -4 67 -12z m-10655 -966 c7 -49 -5 -52 -224 -52 -171 0 -205 2 -218 16 -19
18 -19 20 -6 45 10 18 21 19 228 17 l217 -3 3 -23z m-88 -118 c0 -17 -24 -45
-48 -57 -43 -22 -92 -28 -135 -16 -39 10 -87 48 -87 69 0 6 48 10 135 10 74 0
135 -3 135 -6z"/>
<path d="M2223 2555 c-251 -55 -442 -294 -443 -556 0 -66 30 -189 61 -251 34
-68 95 -145 151 -188 31 -25 75 -77 112 -133 l61 -92 177 -3 177 -2 63 94 c39
57 85 111 119 139 144 118 226 325 200 511 -46 332 -355 551 -678 481z m222
-149 c122 -32 216 -109 272 -222 31 -64 37 -88 41 -158 7 -140 -35 -244 -139
-341 -27 -25 -75 -58 -107 -73 -51 -24 -69 -27 -167 -27 -105 0 -114 2 -178
33 -86 43 -156 113 -199 199 -32 65 -33 72 -33 183 0 109 2 118 32 181 52 106
170 202 280 228 57 14 142 12 198 -3z"/>
<path d="M2264 2331 c-95 -24 -198 -112 -230 -197 -25 -64 -13 -74 93 -74 82
0 84 1 118 35 60 59 139 59 197 -1 33 -33 34 -34 120 -34 77 0 89 2 98 20 9
17 5 32 -21 81 -38 71 -83 113 -158 147 -58 27 -161 38 -217 23z"/>
<path d="M2312 2028 c-19 -19 -14 -45 10 -62 19 -13 25 -14 43 -2 25 16 31 42
15 61 -15 18 -52 19 -68 3z"/>
<path d="M2030 1925 c-19 -23 12 -93 66 -154 46 -51 130 -101 171 -101 22 0
23 3 23 94 l0 94 -41 41 -41 41 -83 0 c-61 0 -86 -4 -95 -15z"/>
<path d="M2438 1899 l-38 -41 0 -94 c0 -91 1 -94 23 -94 39 0 125 50 166 96
54 61 85 128 71 154 -9 18 -21 20 -98 20 l-87 0 -37 -41z"/>
<path d="M6415 1848 c-26 -68 -49 -129 -52 -135 -4 -10 20 -13 101 -13 58 0
106 3 106 8 1 14 -95 262 -101 262 -3 0 -28 -55 -54 -122z"/>
<path d="M7400 1925 l0 -115 70 0 c118 0 170 38 170 125 0 77 -44 105 -165
105 l-75 0 0 -115z"/>
<path d="M10090 1979 c0 -3 -22 -63 -50 -134 -27 -71 -50 -133 -50 -137 0 -4
47 -8 105 -8 58 0 105 2 105 4 0 7 -102 271 -106 275 -2 2 -4 2 -4 0z"/>
<path d="M11030 1926 l0 -116 74 0 c80 0 128 22 154 70 19 37 8 98 -22 129
-24 23 -35 26 -116 29 l-90 4 0 -116z"/>
<path d="M13105 1852 c-26 -70 -50 -133 -53 -139 -3 -10 21 -13 102 -13 58 0
106 4 106 8 0 9 -97 263 -103 268 -2 2 -25 -53 -52 -124z"/>
</g>
</svg>
