<?xml version="1.0" encoding="utf-8"?>
<svg version="1.1" id="Layer_1" xmlns="http://www.w3.org/2000/svg" xmlns:xlink="http://www.w3.org/1999/xlink" x="0px" y="0px"
	 viewBox="0 0 200 80" style="enable-background:new 0 0 200 80;" xml:space="preserve">
<style type="text/css">
	.st0{fill:#446df6;}
	.st1{font-family:'ProximaNova-Regular';}
	.st2{font-size:6.8041px;}
</style>
<g>
	<polygon class="st0" points="25.76,37.86 21.37,53.06 10.33,53.06 2.45,25.86 12.87,25.86 16.47,40.84 21.26,25.86 30.32,25.86 
		35.05,40.84 38.66,25.86 49.13,25.86 41.25,53.06 30.21,53.06 	"/>
	<path class="st0" d="M66.98,50.47c-1.52,1.91-4.84,3.27-8.22,3.27c-4.05,0-9.35-2.76-9.35-8.95c0-6.76,5.29-8.39,9.35-8.39
		c3.55,0,6.76,1.13,8.22,2.98v-3.1c0-1.92-1.75-3.38-5.07-3.38c-2.53,0-5.41,1.01-7.55,2.65l-3.44-6.25
		c3.66-2.93,8.73-4.11,12.84-4.11c6.76,0,13.34,2.37,13.34,11.43v16.44H66.98V50.47z M66.98,44.16c-0.68-0.96-2.42-1.46-4-1.46
		c-1.69,0-3.55,0.56-3.55,2.25c0,1.69,1.86,2.2,3.55,2.2c1.58,0,3.32-0.51,4-1.46V44.16z"/>
	<rect x="82.75" y="15.5" class="st0" width="10.14" height="37.56"/>
	<rect x="98.52" y="15.5" class="st0" width="10.14" height="37.56"/>
	<path class="st0" d="M116.37,45.18V34.65h-4.5v-8.78h4.5v-7.43h10.14v7.43h5.52v8.78h-5.52v7.6c0,1.41,0.9,2.53,2.25,2.53
		c0.9,0,1.8-0.28,2.03-0.51l1.8,7.66c-1.07,0.96-3.44,1.8-6.87,1.8C119.69,53.74,116.37,50.86,116.37,45.18"/>
	<path class="st0" d="M148.75,25.19c8,0,14.13,5.74,14.13,15.32v2.08h-18.47c0.56,1.75,2.54,3.43,5.97,3.43
		c2.31,0,4.79-0.84,6.14-1.91l4.17,6.25c-2.7,2.31-7.55,3.38-11.6,3.38c-8.5,0-15.15-5.35-15.15-14.3
		C133.94,31.55,139.97,25.19,148.75,25.19 M144.3,36.17h8.95c-0.28-1.18-1.24-3.27-4.5-3.27C145.65,32.9,144.64,34.93,144.3,36.17"
		/>
	<path class="st0" d="M166.38,25.86h10.14v3.1c1.69-1.97,5.24-3.77,8.33-3.77v9.69c-0.51-0.17-1.35-0.28-2.31-0.28
		c-2.14,0-4.9,0.56-6.03,1.91v16.56h-10.14V25.86z"/>
	<path class="st0" d="M10.08,59.55h3.34c1.27,0,2,0.78,2,1.81c0,0.9-0.59,1.49-1.24,1.63c0.76,0.12,1.38,0.88,1.38,1.75
		c0,1.12-0.75,1.92-2.06,1.92h-3.42V59.55z M13.21,62.57c0.71,0,1.11-0.45,1.11-1.03c0-0.59-0.39-1.04-1.11-1.04h-2.07v2.08H13.21z
		 M13.27,65.73c0.75,0,1.19-0.43,1.19-1.12c0-0.59-0.4-1.1-1.19-1.1h-2.12v2.22H13.27z"/>
	<polygon class="st0" points="17.71,59.55 22.49,59.55 22.49,60.49 18.78,60.49 18.78,62.57 22.41,62.57 22.41,63.51 18.78,63.51 
		18.78,65.73 22.49,65.73 22.49,66.66 17.71,66.66 	"/>
	<polygon class="st0" points="26.39,60.49 24.19,60.49 24.19,59.55 29.66,59.55 29.66,60.49 27.46,60.49 27.46,66.67 26.39,66.67 	
		"/>
	<polygon class="st0" points="33.34,60.49 31.13,60.49 31.13,59.55 36.6,59.55 36.6,60.49 34.4,60.49 34.4,66.67 33.34,66.67 	"/>
	<polygon class="st0" points="38.54,59.55 43.32,59.55 43.32,60.49 39.61,60.49 39.61,62.57 43.24,62.57 43.24,63.51 39.61,63.51 
		39.61,65.73 43.32,65.73 43.32,66.66 38.54,66.66 	"/>
	<path class="st0" d="M47.88,63.92h-1.33v2.74h-1.07v-7.11h3c1.35,0,2.28,0.87,2.28,2.19c0,1.28-0.86,1.96-1.77,2.08l1.82,2.85
		h-1.24L47.88,63.92z M48.34,60.49h-1.79v2.49h1.79c0.77,0,1.32-0.5,1.32-1.25C49.67,60.99,49.11,60.49,48.34,60.49"/>
	<path class="st0" d="M56.49,59.55h3c1.46,0,2.27,1,2.27,2.19c0,1.18-0.82,2.18-2.27,2.18h-1.93v2.74h-1.07V59.55z M59.35,60.49
		h-1.79v2.49h1.79c0.77,0,1.31-0.5,1.31-1.25C60.66,60.99,60.12,60.49,59.35,60.49"/>
	<path class="st0" d="M67.38,65.19h-3.49l-0.58,1.47h-1.17l2.82-7.11h1.33l2.83,7.11h-1.17L67.38,65.19z M64.2,64.24h2.87
		l-1.44-3.76L64.2,64.24z"/>
	<polygon class="st0" points="72.18,63.69 69.4,59.55 70.62,59.55 72.71,62.73 74.78,59.55 76.02,59.55 73.25,63.69 73.25,66.66 
		72.18,66.66 	"/>
	<polygon class="st0" points="83.83,61.01 81.52,66.66 81.07,66.66 78.77,61.01 78.77,66.66 77.71,66.66 77.71,59.55 79.23,59.55 
		81.3,64.66 83.37,59.55 84.89,59.55 84.89,66.66 83.83,66.66 	"/>
	<polygon class="st0" points="87.3,59.55 92.08,59.55 92.08,60.49 88.37,60.49 88.37,62.57 92,62.57 92,63.51 88.37,63.51 
		88.37,65.73 92.08,65.73 92.08,66.66 87.3,66.66 	"/>
	<polygon class="st0" points="95.31,61.21 95.31,66.66 94.25,66.66 94.25,59.55 95.35,59.55 99.22,64.88 99.22,59.55 100.28,59.55 
		100.28,66.66 99.25,66.66 	"/>
	<polygon class="st0" points="104.43,60.49 102.22,60.49 102.22,59.55 107.69,59.55 107.69,60.49 105.5,60.49 105.5,66.67 
		104.43,66.67 	"/>
	<path class="st0" d="M113.39,64.84c0.48,0.53,1.25,1,2.24,1c1.15,0,1.56-0.59,1.56-1.1c0-0.75-0.81-0.96-1.72-1.19
		c-1.14-0.3-2.46-0.63-2.46-2.08c0-1.17,1.03-2.03,2.51-2.03c1.1,0,1.96,0.35,2.59,0.99l-0.62,0.79c-0.54-0.58-1.29-0.83-2.06-0.83
		c-0.79,0-1.33,0.41-1.33,1c0,0.64,0.77,0.84,1.65,1.07c1.16,0.31,2.52,0.67,2.52,2.18c0,1.11-0.77,2.14-2.69,2.14
		c-1.27,0-2.2-0.46-2.8-1.13L113.39,64.84z"/>
	<path class="st0" d="M123.63,59.44c2.12,0,3.58,1.57,3.58,3.68c0,2.11-1.46,3.68-3.58,3.68c-2.12,0-3.58-1.57-3.58-3.68
		C120.05,61,121.51,59.44,123.63,59.44 M123.63,60.39c-1.52,0-2.48,1.16-2.48,2.73c0,1.56,0.96,2.73,2.48,2.73
		c1.5,0,2.48-1.17,2.48-2.73C126.11,61.55,125.13,60.39,123.63,60.39"/>
	<polygon class="st0" points="129.34,59.55 130.4,59.55 130.4,65.73 133.63,65.73 133.63,66.66 129.34,66.66 	"/>
	<path class="st0" d="M135.36,59.55h1.08v4.3c0,1.22,0.67,1.99,1.92,1.99c1.25,0,1.91-0.78,1.91-1.99v-4.3h1.08v4.32
		c0,1.77-0.99,2.92-2.99,2.92c-1.99,0-3-1.16-3-2.91V59.55z"/>
	<polygon class="st0" points="145.5,60.49 143.3,60.49 143.3,59.55 148.76,59.55 148.76,60.49 146.57,60.49 146.57,66.67 
		145.5,66.67 	"/>
	<rect x="150.71" y="59.55" class="st0" width="1.07" height="7.11"/>
	<path class="st0" d="M157.48,59.44c2.12,0,3.58,1.57,3.58,3.68c0,2.11-1.46,3.68-3.58,3.68c-2.12,0-3.58-1.57-3.58-3.68
		C153.9,61,155.36,59.44,157.48,59.44 M157.48,60.39c-1.52,0-2.48,1.16-2.48,2.73c0,1.56,0.96,2.73,2.48,2.73
		c1.5,0,2.48-1.17,2.48-2.73C159.96,61.55,158.98,60.39,157.48,60.39"/>
	<polygon class="st0" points="164.25,61.21 164.25,66.66 163.19,66.66 163.19,59.55 164.29,59.55 168.16,64.88 168.16,59.55 
		169.22,59.55 169.22,66.66 168.19,66.66 	"/>
	<path class="st0" d="M171.8,64.84c0.48,0.53,1.25,1,2.24,1c1.15,0,1.56-0.59,1.56-1.1c0-0.75-0.81-0.96-1.72-1.19
		c-1.14-0.3-2.46-0.63-2.46-2.08c0-1.17,1.03-2.03,2.52-2.03c1.1,0,1.96,0.35,2.59,0.99l-0.62,0.79c-0.54-0.58-1.29-0.83-2.06-0.83
		c-0.79,0-1.33,0.41-1.33,1c0,0.64,0.77,0.84,1.65,1.07c1.16,0.31,2.52,0.67,2.52,2.18c0,1.11-0.77,2.14-2.69,2.14
		c-1.27,0-2.2-0.46-2.8-1.13L171.8,64.84z"/>
	<path class="st0" d="M194.25,16.25c-2.62,0-4.75,2.13-4.75,4.75c0,2.62,2.13,4.75,4.75,4.75c2.62,0,4.75-2.13,4.75-4.75
		C199,18.38,196.87,16.25,194.25,16.25 M194.25,25.13c-2.28,0-4.13-1.85-4.13-4.13s1.85-4.13,4.13-4.13c2.28,0,4.13,1.85,4.13,4.13
		S196.53,25.13,194.25,25.13"/>
	<text transform="matrix(1 0 0 1 192.3086 23.3262)" class="st0 st1 st2">R</text>
</g>
</svg>
